static_grf.mot
version=1
nRows=22
nColumns 19
inDegrees=yes
endheader
time	1_ground_force_vx	1_ground_force_vy	1_ground_force_vz	1_ground_force_px	1_ground_force_py	1_ground_force_pz	1_ground_torque_x	1_ground_torque_y	1_ground_torque_z	2_ground_force_vx	2_ground_force_vy	2_ground_force_vz	2_ground_force_px	2_ground_force_py	2_ground_force_pz	2_ground_torque_x	2_ground_torque_y	2_ground_torque_z
            0.005000	            2.264566	          275.666608	           -8.132693	           -0.314139	            0.006401	           -0.450244	            0.003539	            0.430798	           -0.012709	           -4.255653	          271.573105	           10.450034	           -0.289121	            0.005311	           -0.661541	            0.011010	           -0.702585	           -0.027035
            0.005500	            2.218055	          276.208349	           -8.359540	           -0.313642	            0.006398	           -0.449558	            0.003634	            0.452517	           -0.013696	           -4.256942	          271.941113	           10.545204	           -0.289325	            0.005311	           -0.661776	            0.010532	           -0.672832	           -0.026091
            0.006000	            2.447792	          275.847075	           -8.178231	           -0.314457	            0.006398	           -0.449575	            0.004349	            0.490133	           -0.014531	           -4.070166	          272.125596	           10.639638	           -0.289004	            0.005313	           -0.661892	            0.010584	           -0.707651	           -0.027668
            0.006500	            2.034684	          276.208314	           -8.359085	           -0.313545	            0.006399	           -0.449698	            0.002725	            0.369948	           -0.011196	           -4.257565	          272.124919	           10.639717	           -0.289208	            0.005312	           -0.661820	            0.011483	           -0.733914	           -0.028695
            0.007000	            2.218367	          275.126558	           -8.318322	           -0.314165	            0.006400	           -0.450043	            0.003519	            0.436423	           -0.013195	           -4.399444	          272.492693	           10.641091	           -0.288931	            0.005313	           -0.662054	            0.010971	           -0.679532	           -0.026536
            0.007500	            2.310328	          275.486518	           -8.179436	           -0.314112	            0.006399	           -0.449901	            0.003788	            0.451643	           -0.013410	           -3.976548	          272.126604	           10.451886	           -0.289010	            0.005311	           -0.661343	            0.009845	           -0.673694	           -0.025875
            0.008000	            2.126989	          275.306247	           -8.179753	           -0.314203	            0.006401	           -0.450373	            0.002942	            0.380771	           -0.011313	           -4.494391	          272.859967	           10.830158	           -0.288999	            0.005314	           -0.662356	            0.010198	           -0.619122	           -0.024574
            0.008500	            2.309840	          275.667600	           -8.362086	           -0.313791	            0.006398	           -0.449668	            0.003413	            0.407338	           -0.012356	           -4.256859	          271.940444	           10.732917	           -0.289116	            0.005312	           -0.661776	            0.010372	           -0.662612	           -0.026152
            0.009000	            2.080724	          275.126728	           -8.363836	           -0.314396	            0.006402	           -0.450597	            0.003081	            0.407415	           -0.012385	           -4.535403	          271.203642	           10.495767	           -0.289279	            0.005310	           -0.661379	            0.010210	           -0.610553	           -0.023629
            0.009500	            2.218562	          275.306461	           -8.225837	           -0.314182	            0.006402	           -0.450514	            0.003542	            0.439500	           -0.013132	           -4.348483	          271.386953	           10.918698	           -0.289227	            0.005311	           -0.661563	            0.010991	           -0.685919	           -0.027597
            0.010000	            2.172521	          276.388046	           -8.221085	           -0.314013	            0.006399	           -0.449818	            0.003141	            0.399655	           -0.011888	           -4.304333	          272.124080	           10.827450	           -0.289076	            0.005313	           -0.662030	            0.010595	           -0.669796	           -0.026650
            0.010500	            2.218187	          275.487286	           -8.362632	           -0.314261	            0.006401	           -0.450202	            0.003777	            0.469127	           -0.014241	           -4.159857	          271.020185	           10.682663	           -0.289723	            0.005308	           -0.661261	            0.010587	           -0.689751	           -0.027188
            0.011000	            2.217861	          276.028507	           -8.452025	           -0.313903	            0.006399	           -0.449904	            0.003350	            0.416946	           -0.012767	           -4.537335	          271.755623	           10.638523	           -0.288951	            0.005313	           -0.662004	            0.010628	           -0.636536	           -0.024919
            0.011500	            2.218837	          275.666403	           -8.086723	           -0.314284	            0.006399	           -0.449897	            0.003296	            0.409459	           -0.012012	           -4.162454	          271.756307	           10.826076	           -0.289217	            0.005310	           -0.661520	            0.010914	           -0.712577	           -0.028387
            0.012000	            2.081048	          275.847005	           -8.177321	           -0.313986	            0.006400	           -0.449991	            0.002714	            0.359712	           -0.010663	           -4.160398	          271.203321	           10.964889	           -0.289262	            0.005309	           -0.661239	            0.010903	           -0.710701	           -0.028734
            0.012500	            2.355926	          276.207786	           -8.222314	           -0.313827	            0.006398	           -0.449468	            0.003771	            0.442063	           -0.013160	           -4.303065	          271.756301	           10.685351	           -0.289082	            0.005310	           -0.661382	            0.010895	           -0.688056	           -0.027054
            0.013000	            2.035367	          276.207134	           -8.083949	           -0.314500	            0.006398	           -0.449517	            0.002626	            0.356408	           -0.010431	           -4.161810	          271.572272	           10.778491	           -0.289257	            0.005310	           -0.661335	            0.010731	           -0.700261	           -0.027793
            0.013500	            2.219080	          276.206579	           -7.946837	           -0.314335	            0.006397	           -0.449291	            0.002896	            0.360461	           -0.010371	           -4.400109	          272.676834	           10.641748	           -0.289381	            0.005312	           -0.662033	            0.010424	           -0.646007	           -0.025212
            0.014000	            2.218088	          276.028114	           -8.360313	           -0.313830	            0.006398	           -0.449617	            0.003652	            0.454448	           -0.013764	           -4.303086	          271.756469	           10.638423	           -0.289297	            0.005311	           -0.661729	            0.010156	           -0.641365	           -0.025107
            0.014500	            2.263916	          275.487492	           -8.408602	           -0.314047	            0.006401	           -0.450209	            0.003943	            0.479756	           -0.014643	           -4.071536	          272.494212	           10.547096	           -0.289137	            0.005312	           -0.661987	            0.010376	           -0.694444	           -0.026879
            0.015000	            1.989266	          275.126317	           -8.271897	           -0.314008	            0.006402	           -0.450517	            0.002534	            0.350479	           -0.010537	           -4.305039	          272.308556	           10.734251	           -0.288830	            0.005314	           -0.662077	            0.010768	           -0.681113	           -0.026849
            0.015500	            2.218562	          275.306461	           -8.225837	           -0.314456	            0.006401	           -0.450309	            0.003484	            0.432363	           -0.012918	           -4.164509	          272.309231	           10.687263	           -0.289173	            0.005312	           -0.661870	            0.010786	           -0.705245	           -0.027679
